<?xml version="1.0" encoding="UTF-8"?>
<!DOCTYPE svg PUBLIC "-//W3C//DTD SVG 1.1//EN" "http://www.w3.org/Graphics/SVG/1.1/DTD/svg11.dtd">
<!-- Creator: CorelDRAW 2019 (64 Bit) -->
<svg xmlns="http://www.w3.org/2000/svg" xml:space="preserve" width="1400px" height="308px" version="1.1" style="shape-rendering:geometricPrecision; text-rendering:geometricPrecision; image-rendering:optimizeQuality; fill-rule:evenodd; clip-rule:evenodd"
viewBox="0 0 1400 308"
 xmlns:xlink="http://www.w3.org/1999/xlink">
 <defs>
  <style type="text/css">
   <![CDATA[
    .fil0 {fill:black}
    .fil13 {fill:black}
    .fil11 {fill:#3E8FC9}
    .fil10 {fill:#4398D1}
    .fil12 {fill:#80A834}
    .fil5 {fill:#88B337}
    .fil7 {fill:#D65245}
    .fil6 {fill:#E8594A}
    .fil4 {fill:#FABD91}
    .fil8 {fill:#FDB62F}
    .fil3 {fill:#FEC9A3}
    .fil9 {fill:#FFA719}
    .fil1 {fill:white;fill-rule:nonzero}
    .fil2 {fill:#FF6600;fill-rule:nonzero}
   ]]>
  </style>
 </defs>
 <g id="Camada_x0020_1">
  <metadata id="CorelCorpID_0Corel-Layer"/>
  <g id="_1799349766176">
   <path class="fil0" d="M1046.59 86.05l-1.18 2.34c-9.92,19.73 -14.37,42.22 -14.37,64.22 0,21.99 4.45,44.49 14.37,64.21l3.73 7.42 -27.68 12.77 -3.6 -6.56c-13.54,-24.66 -20.13,-49.56 -20.13,-77.84 0,-28.28 6.59,-53.19 20.13,-77.84l3.6 -6.56 25.13 11.58 0 -3.68 36.79 0 0 48.84 11.18 -15.66 37.4 0c-4.73,-3.7 -7.66,-9.52 -7.66,-16.25 0,-11.64 8.73,-20.33 20.35,-20.33 11.7,0 20.36,8.62 20.36,20.33 0,6.76 -2.89,12.56 -7.6,16.25l6 0 0 35.35c1.51,-8.28 4.62,-16.25 9.76,-22.94 6.53,-8.5 16.1,-14.35 27.01,-14.35 3.23,0 6.12,0.4 8.79,1.19l0 -32.43 37.37 0 0 104.32 10.83 -16.85c-6.54,-5.63 -10.79,-13.14 -10.79,-23.11 0,-20.51 15.75,-33.12 35.57,-33.12 11.84,0 21.58,4.63 30.51,12.05l5.58 4.63 -15.88 23.63c8.46,5.74 13.78,13.75 13.78,25.99 0,21.66 -16.88,33.93 -37.61,33.93 -11.21,0 -23.45,-5.03 -31.99,-12.4l0 10.46 -32.12 0 -0.34 -1.86c-4.37,2.36 -9.18,3.8 -14.13,3.8 -5.5,0 -10.85,-1.2 -15.73,-3.74 -12.37,-6.45 -18.34,-19.25 -20.61,-32.53l0 34.33 -67.56 0 -12.47 -23.98 0 23.98 -36.79 0 0 -119.59zm79.45 39.07l-19.75 25.86 19.75 34.43 0 -60.29zm-166.59 -10.17c3.57,-3.58 8.39,-5.82 14.12,-5.82 12.67,0 20.94,10.99 20.94,23.08 0,11.99 -8.31,22.93 -20.94,22.93 -8.83,0 -15.54,-5.35 -18.78,-12.66l-0.93 5.46 -8.76 -2.72c-1.92,-0.59 -3.44,-0.93 -5.45,-0.93 -3.65,0 -6.43,4.87 -7.77,8.16l0 53.19 -37.38 0 0 -34.81c-3.7,16.99 -14.62,31.73 -32.9,35.8 -2.84,0.63 -5.74,0.95 -8.65,0.95 -3.26,0 -6.51,-0.39 -9.67,-1.17 -22.47,-5.56 -33.45,-27.14 -33.45,-48.95 0,-4.55 0.48,-9.1 1.44,-13.49l-4.23 0 0 61.67 -37.37 0 0 -61.67 -9.57 0 0 -33.11 9.64 -0.82c0.97,-20.45 11.97,-35.88 34.49,-35.88 5.89,0 11.92,1.29 17.38,3.51l6.3 2.56 -7.45 33.27 -0.51 -0.2 0 10.92c5.5,-7.5 13.26,-13.21 23.33,-15.7 3.16,-0.78 6.41,-1.17 9.67,-1.17 2.91,0 5.81,0.32 8.66,0.95 18.27,4.06 29.19,18.81 32.89,35.8l0 -34.81 32.68 0 0.3 2.93c4.29,-3.01 9.3,-4.87 14.92,-4.87 4.23,0 8.18,0.57 12.02,2.4l5.46 2.62 -0.43 2.58zm-150.12 -5.66c-0.67,-0.16 -1.34,-0.27 -1.95,-0.29 -0.02,0.09 -0.04,0.19 -0.07,0.29l2.02 0zm-152.04 31.69c1.55,-20.25 17.08,-33.63 37.62,-33.63 4.21,0 8.59,0.57 12.61,1.94l32.83 0 0 33.38 -9.22 0c0.06,0.84 0.09,1.68 0.09,2.49 0,13.9 -6.02,24.27 -15.85,29.99 14.75,2.15 26.14,10.01 26.14,27.8 0,4.5 -0.87,8.91 -2.66,13.04 -7.61,17.59 -27.83,23.8 -45.53,23.8 -18.08,0 -38.19,-7.23 -38.19,-28.42 0,-2.01 0.23,-3.92 0.65,-5.73l-35.59 0 0 -54.81c0,-1.34 -0.09,-5.37 -0.69,-7.19 -0.04,0 -0.09,0 -0.12,0 -1.99,0 -3.79,1.39 -5.31,2.91l0 59.09 -37.38 0 0 -96.35 32.4 0 0.46 3.23c5.18,-3.2 10.97,-5.17 17.66,-5.17 20.76,0 28.58,16.01 30.08,33.63zm0.28 8.71l0 50.95c1.18,-2.42 2.76,-4.63 4.65,-6.62 -2.31,-3.82 -3.47,-8.25 -3.47,-13.09 0,-5.56 2.05,-10.92 5.34,-15.38 -3.43,-4.61 -5.66,-10.16 -6.52,-15.86zm-114.97 -40.4c-4.73,-3.7 -7.66,-9.52 -7.66,-16.25 0,-11.64 8.73,-20.33 20.35,-20.33 11.7,0 20.36,8.62 20.36,20.33 0,6.76 -2.89,12.56 -7.6,16.25l6 0 0 96.35 -37.37 0 0 -96.35 5.92 0zm-90.34 29.72c1.74,-6.23 4.49,-12.15 8.46,-17.31 6.53,-8.5 16.1,-14.35 27.01,-14.35 3.23,0 6.12,0.4 8.79,1.19l0 -32.43 37.37 0 0 129.53 -32.12 0 -0.34 -1.86c-4.37,2.36 -9.18,3.8 -14.13,3.8 -5.5,0 -10.85,-1.2 -15.74,-3.74 -10.73,-5.6 -16.64,-15.99 -19.5,-27.31 -4.73,14.51 -15.16,26.5 -31.35,30.1 -2.84,0.63 -5.75,0.95 -8.66,0.95 -3.26,0 -6.51,-0.39 -9.67,-1.17 -11.73,-2.9 -20.33,-10.18 -25.87,-19.57l-1.59 2.06c-9.16,11.94 -21.85,18.68 -36.96,18.68 -6.9,0 -13.72,-1.33 -20.06,-4.08 -23.06,-10.05 -31.9,-34.36 -31.9,-58.01 0,-25.66 11.25,-52.21 37.21,-60.89 4.99,-1.67 10.21,-2.51 15.48,-2.51 13.47,0 25.69,6.5 34.45,16.5l4.28 4.88 -20.77 27.94 -6.58 -6.67c-3,-3.05 -6.44,-6.02 -10.95,-6.02 -11.98,0 -15.16,16.95 -15.16,25.96 0,9.46 2.23,26.28 14.87,26.28 5.08,0 9.16,-3.32 12.27,-7.02l6.47 -7.67 13.61 17.92c-1.5,-5.38 -2.25,-11.04 -2.25,-16.73 0,-21.8 10.98,-43.38 33.45,-48.94 3.16,-0.78 6.41,-1.17 9.67,-1.17 2.91,0 5.82,0.32 8.66,0.95 16.42,3.65 26.91,15.93 31.55,30.71zm521.31 68.57c-12.63,0 -20.93,-10.93 -20.93,-22.92 0,-12.1 8.26,-23.09 20.93,-23.09 12.67,0 20.94,10.99 20.94,23.09 0,11.99 -8.31,22.92 -20.94,22.92zm362.13 29.43l-27.73 -12.78 3.8 -7.45c10.04,-19.69 14.49,-42.16 14.49,-64.17 0,-22.01 -4.45,-44.49 -14.49,-64.18l-3.8 -7.44 27.73 -12.78 3.6 6.56c13.54,24.65 20.13,49.56 20.13,77.84 0,28.28 -6.59,53.18 -20.13,77.84l-3.6 6.56zm-923.65 -64.75c4.74,0 5.16,-11.94 5.16,-14.8 0,-2.86 -0.42,-14.79 -5.16,-14.79 -4.84,0 -5.16,11.87 -5.16,14.79 0,2.93 0.32,14.8 5.16,14.8zm84.47 -1.99l0 -26.48c-1.14,-0.63 -2.4,-0.96 -3.86,-0.96 -0.08,0 -0.16,0.01 -0.24,0.02 -3.8,0.59 -4.63,11.73 -4.63,14.29 0,2.99 -0.03,14.95 5.01,14.95 1.7,0 2.79,-0.73 3.72,-1.82zm198.39 -20.51c1.74,0 1.83,-4.43 1.83,-5.41 0,-1.03 -0.09,-4.92 -1.83,-4.92 -1.82,0 -1.83,3.83 -1.83,4.92 0,0.98 0.09,5.41 1.83,5.41zm-0.7 58.95c1.01,0.09 1.91,0.13 2.44,0.13 0.48,0 1.17,-0.04 1.96,-0.13l-3.84 0c-0.19,0 -0.38,0 -0.56,0zm514.76 -38.44l0 -26.48c-1.14,-0.63 -2.4,-0.96 -3.86,-0.96 -0.08,0 -0.16,0.01 -0.23,0.02 -3.81,0.59 -4.64,11.73 -4.64,14.29 0,2.99 -0.03,14.95 5.02,14.95 1.69,0 2.78,-0.73 3.71,-1.82zm-356.02 1.99c4.74,0 5.16,-11.94 5.16,-14.8 0,-2.86 -0.42,-14.79 -5.16,-14.79 -4.85,0 -5.17,11.87 -5.17,14.79 0,2.93 0.32,14.8 5.17,14.8z"/>
  </g>
  <path class="fil1" d="M337.96 199.55c12.32,0 22.76,-5.34 30.59,-15.54l-11.31 -14.89c-4.64,5.5 -10.73,9.87 -18.41,9.87 -13.92,0 -22.91,-12.62 -22.91,-34.31 0,-21.21 10.3,-33.99 23.2,-33.99 6.81,0 11.89,3.56 16.67,8.41l11.31 -15.21c-6.38,-7.29 -16.24,-13.76 -28.41,-13.76 -23.93,0 -44.66,20.39 -44.66,55.36 0,35.44 20.01,54.06 43.93,54.06z"/>
  <path id="1" class="fil1" d="M412.05 199.55c18.12,0 34.94,-15.38 34.94,-42.09 0,-26.7 -16.82,-42.08 -34.94,-42.08 -18.27,0 -35.09,15.38 -35.09,42.08 0,26.71 16.82,42.09 35.09,42.09zm0 -19.26c-8.85,0 -13.2,-8.9 -13.2,-22.83 0,-13.92 4.35,-22.82 13.2,-22.82 8.69,0 13.19,8.9 13.19,22.82 0,13.93 -4.5,22.83 -13.19,22.83z"/>
  <path id="2" class="fil1" d="M487.29 199.55c6.96,0 14.06,-4.21 19.14,-9.87l0.58 0 1.45 7.93 17.4 0 0 -113.47 -21.32 0 0 27.36 0.87 12.3c-4.93,-5.18 -9.71,-8.42 -17.69,-8.42 -15.22,0 -29.86,15.86 -29.86,42.08 0,26.23 11.6,42.09 29.43,42.09zm5.51 -19.42c-8.26,0 -13.05,-7.13 -13.05,-22.99 0,-15.21 6.09,-22.34 12.9,-22.34 3.92,0 8.12,1.3 11.89,5.18l0 32.86c-3.48,5.34 -7.1,7.29 -11.74,7.29z"/>
  <path id="3" class="fil1" d="M544.7 197.61l21.32 0 0 -80.29 -21.32 0 0 80.29zm10.59 -92.1c7.24,0 12.32,-5.18 12.32,-12.47 0,-7.28 -5.08,-12.3 -12.32,-12.3 -7.11,0 -12.33,5.02 -12.33,12.3 0,7.29 5.22,12.47 12.33,12.47z"/>
  <path id="4" class="fil1" d="M584.72 197.61l21.31 0 0 -54.23c4.64,-5.01 7.97,-7.77 13.34,-7.77 6.09,0 8.84,3.56 8.84,15.22l0 46.78 21.31 0 0 -49.86c0,-20.07 -6.67,-32.37 -22.32,-32.37 -9.72,0 -16.97,5.67 -23.05,12.14l-0.58 0 -1.46 -10.2 -17.39 0 0 80.29z"/>
  <path id="5" class="fil1" d="M693.31 231.76c24.65,0 40.16,-12.14 40.16,-28.81 0,-14.41 -9.72,-20.4 -27.4,-20.4l-11.6 0c-7.98,0 -10.88,-1.94 -10.88,-5.99 0,-2.75 0.73,-4.2 2.61,-5.99 3.19,1.14 6.09,1.62 8.7,1.62 15.81,0 28.27,-8.57 28.27,-27.03 0,-4.21 -1.01,-8.09 -2.32,-10.52l11.46 0 0 -17.32 -26.24 0c-3.19,-1.29 -7.11,-1.94 -11.17,-1.94 -15.51,0 -29.72,9.71 -29.72,28.97 0,9.39 4.64,17 9.72,20.88l0 0.65c-4.64,3.56 -8.12,9.23 -8.12,15.05 0,6.64 2.9,10.85 6.67,13.6l0 0.65c-6.67,4.21 -10.3,9.55 -10.3,16.19 0,14.24 13.34,20.39 30.16,20.39zm1.59 -73.97c-5.65,0 -9.86,-4.53 -9.86,-13.44 0,-8.58 4.21,-12.95 9.86,-12.95 5.66,0 9.86,4.54 9.86,12.95 0,8.91 -4.2,13.44 -9.86,13.44zm1.74 59.08c-9.57,0 -15.95,-3.24 -15.95,-9.23 0,-2.91 1.31,-5.34 3.92,-7.93 2.32,0.65 5.22,0.97 10.15,0.97l7.39 0c7.11,0 11.02,1.3 11.02,6.32 0,5.5 -6.96,9.87 -16.53,9.87z"/>
  <polygon id="6" class="fil1" points="1054.6,197.61 1075.33,197.61 1075.33,177.86 1084.47,166.37 1100.7,197.61 1123.76,197.61 1096.65,150.34 1121.87,117.32 1098.68,117.32 1075.91,149.21 1075.33,149.21 1075.33,84.14 1054.6,84.14 "/>
  <path id="7" class="fil1" d="M1134.05 197.61l21.31 0 0 -80.29 -21.31 0 0 80.29zm10.58 -92.1c7.25,0 12.33,-5.18 12.33,-12.47 0,-7.28 -5.08,-12.3 -12.33,-12.3 -7.1,0 -12.32,5.02 -12.32,12.3 0,7.29 5.22,12.47 12.32,12.47z"/>
  <path id="8" class="fil1" d="M1199.73 199.55c6.96,0 14.06,-4.21 19.13,-9.87l0.58 0 1.45 7.93 17.4 0 0 -113.47 -21.31 0 0 27.36 0.87 12.3c-4.93,-5.18 -9.71,-8.42 -17.69,-8.42 -15.22,0 -29.86,15.86 -29.86,42.08 0,26.23 11.59,42.09 29.43,42.09zm5.51 -19.42c-8.27,0 -13.05,-7.13 -13.05,-22.99 0,-15.21 6.09,-22.34 12.9,-22.34 3.91,0 8.12,1.3 11.89,5.18l0 32.86c-3.48,5.34 -7.1,7.29 -11.74,7.29z"/>
  <path id="9" class="fil1" d="M1278.31 199.55c19.28,0 29.57,-11.33 29.57,-25.9 0,-14.73 -10.29,-20.39 -19.42,-24.12 -7.4,-3.07 -14.07,-5.01 -14.07,-10.19 0,-4.05 2.61,-6.32 8.12,-6.32 5.07,0 10,2.59 15.22,6.8l9.57 -14.24c-6.23,-5.18 -14.35,-10.2 -25.37,-10.2 -16.67,0 -27.55,10.2 -27.55,25.09 0,13.27 10.3,19.91 19,23.63 7.39,3.24 14.64,5.67 14.64,11.01 0,4.21 -2.75,6.8 -9.13,6.8 -6.09,0 -12.04,-2.92 -18.56,-8.42l-9.57 14.89c7.25,6.64 18.12,11.17 27.55,11.17z"/>
  <path id="10" class="fil2" d="M777.69 197.61l21.31 0 0 -61.67 12.9 0 0 -18.62 -12.9 0 0 -4.85c0,-8.26 3.04,-11.5 8.26,-11.5 2.32,0 4.93,0.65 7.4,1.62l3.91 -17.48c-3.19,-1.29 -8.41,-2.91 -14.35,-2.91 -19.43,0 -26.53,13.92 -26.53,30.86l0 4.37 -9.57 0.81 0 17.7 9.57 0 0 61.67z"/>
  <path id="11" class="fil2" d="M852.93 199.55c18.12,0 34.94,-15.38 34.94,-42.09 0,-26.7 -16.82,-42.08 -34.94,-42.08 -18.27,0 -35.08,15.38 -35.08,42.08 0,26.71 16.81,42.09 35.08,42.09zm0 -19.26c-8.84,0 -13.19,-8.9 -13.19,-22.83 0,-13.92 4.35,-22.82 13.19,-22.82 8.7,0 13.2,8.9 13.2,22.82 0,13.93 -4.5,22.83 -13.2,22.83z"/>
  <path id="12" class="fil2" d="M902.52 197.61l21.31 0 0 -46.62c3.77,-10.84 10.44,-14.73 15.8,-14.73 3.05,0 5.22,0.49 7.83,1.29l3.48 -20.55c-2.03,-0.97 -4.49,-1.62 -8.56,-1.62 -7.39,0 -15.22,5.18 -20.44,16.02l-0.58 0 -1.45 -14.08 -17.39 0 0 80.29z"/>
  <path id="13" class="fil2" d="M973.56 147.11c7.39,0 12.9,-6.48 12.9,-14.9 0,-8.58 -5.51,-15.05 -12.9,-15.05 -7.4,0 -12.91,6.47 -12.91,15.05 0,8.42 5.51,14.9 12.91,14.9zm0 52.44c7.39,0 12.9,-6.47 12.9,-14.89 0,-8.58 -5.51,-15.06 -12.9,-15.06 -7.4,0 -12.91,6.48 -12.91,15.06 0,8.42 5.51,14.89 12.91,14.89z"/>
  <path id="14" class="fil2" d="M1024.88 226.58l13.34 -6.15c-10.59,-21.04 -15.22,-44.84 -15.22,-67.82 0,-22.99 4.63,-46.78 15.22,-67.82l-13.34 -6.15c-12.18,22.17 -19.14,45.48 -19.14,73.97 0,28.49 6.96,51.8 19.14,73.97z"/>
  <path id="15" class="fil2" d="M1332.24 226.58c12.18,-22.17 19.14,-45.48 19.14,-73.97 0,-28.49 -6.96,-51.8 -19.14,-73.97l-13.34 6.15c10.73,21.04 15.37,44.83 15.37,67.82 0,22.98 -4.64,46.78 -15.37,67.82l13.34 6.15z"/>
  <g id="_1798711432736">
   <path class="fil3" d="M278.08 274.99l0 -50.52c0,-5.53 -2.7,-10.71 -7.23,-13.89l-31.87 -22.31c-2.14,-1.5 -4.68,-2.3 -7.29,-2.3l-25.67 0 0.43 72.53c0.15,7.56 5.09,14.18 12.29,16.49l59.34 0 0 0z"/>
   <path class="fil4" d="M252.65 274.99l-29.67 0c-9.37,0 -16.96,-7.59 -16.96,-16.96l0 -16.95 29.68 0 16.95 33.91z"/>
   <path class="fil5" d="M142.44 58.8c-2.92,0.01 -5.81,0.62 -8.48,1.79l0 -31.46 -76.3 0c-14.05,0 -25.43,11.39 -25.43,25.44l0 76.3 31.46 0c-4.71,-10.72 0.17,-23.23 10.88,-27.93 10.72,-4.71 23.23,0.17 27.93,10.89 2.39,5.43 2.39,11.61 0,17.04l31.46 0 0 -31.46c10.72,4.7 23.22,-0.17 27.93,-10.89 4.7,-10.72 -0.17,-23.22 -10.89,-27.92 -2.69,-1.19 -5.61,-1.8 -8.56,-1.8z"/>
   <path class="fil6" d="M235.7 54.57c0,-14.05 -11.39,-25.44 -25.44,-25.44l-76.3 0 0 31.46c10.72,-4.7 23.22,0.17 27.93,10.89 4.7,10.72 -0.17,23.22 -10.89,27.93 -5.43,2.38 -11.61,2.38 -17.04,0l0 31.46 31.46 0c-4.71,10.71 0.16,23.22 10.88,27.92 10.72,4.71 23.22,-0.16 27.93,-10.88 2.39,-5.43 2.39,-11.62 0,-17.05l31.46 0 0 -76.29 0.01 0z"/>
   <path class="fil7" d="M235.7 56.99c-24.24,33.7 -67.98,52.85 -101.74,63.16l0 10.72 31.46 0c-4.7,10.71 0.17,23.22 10.89,27.92 10.71,4.71 23.22,-0.16 27.92,-10.88 2.39,-5.43 2.39,-11.62 0,-17.05l31.47 0 0 -73.87 0 0z"/>
   <path class="fil8" d="M125.48 164.78c2.92,0 5.81,0.61 8.48,1.79l0 -35.7 -31.46 0c4.71,-10.72 -0.16,-23.22 -10.88,-27.93 -10.73,-4.7 -23.22,0.17 -27.93,10.89 -2.39,5.43 -2.39,11.61 0,17.04l-31.46 0 0 76.3c0,14.05 11.38,25.43 25.43,25.43l76.3 0 0 -27.22c-10.71,4.71 -23.22,-0.16 -27.92,-10.88 -4.71,-10.72 0.16,-23.22 10.88,-27.93 2.7,-1.19 5.62,-1.8 8.56,-1.79z"/>
   <path class="fil9" d="M32.23 207.17c0,14.04 11.38,25.43 25.43,25.43l76.3 0 0 -27.22c-10.66,4.69 -23.12,-0.14 -27.81,-10.81 -1.09,-2.47 -1.7,-5.14 -1.78,-7.84 -22.73,10.13 -47.26,15.59 -72.14,16.04 0,0 0,4.4 0,4.4z"/>
   <path class="fil10" d="M246.78 219.46l-26.82 -71.64 -29.46 11.1c8.21,8.36 8.09,21.79 -0.27,30 -8.37,8.21 -21.81,8.09 -30.01,-0.28 -4.18,-4.26 -6.38,-10.08 -6.05,-16.04l-29.45 11.1 12.55 33.52c-2.91,-0.17 -5.83,0.28 -8.56,1.31 -10.95,4.24 -16.38,16.56 -12.13,27.5 4.18,10.76 16.17,16.22 27.03,12.3 2.73,-1.03 5.22,-2.62 7.31,-4.67l9.56 25.57 71.43 -26.91c13.17,-4.98 19.82,-19.68 14.87,-32.86z"/>
   <path class="fil11" d="M232.95 182.52c-29.25,43.74 -84.08,59.02 -116.19,64.28 4.5,10.72 16.85,15.75 27.57,11.25 2.45,-1.03 4.69,-2.52 6.59,-4.39l9.56 25.57 71.43 -26.91c13.16,-4.98 19.81,-19.67 14.87,-32.85l-13.83 -36.95z"/>
   <path class="fil12" d="M142.44 58.8c-2.92,0.01 -5.81,0.62 -8.48,1.79l0 -6.15c-31.74,29.22 -74.74,45.36 -101.73,53.22l0 23.21 31.46 0c-4.71,-10.72 0.17,-23.22 10.88,-27.93 10.72,-4.7 23.23,0.17 27.93,10.89 2.39,5.43 2.39,11.61 0,17.04l31.46 0 0 -31.46c10.72,4.71 23.22,-0.17 27.93,-10.89 4.7,-10.72 -0.17,-23.22 -10.89,-27.92 -2.69,-1.19 -5.61,-1.8 -8.56,-1.8z"/>
   <path class="fil3" d="M227.29 219.96c-4.05,-4.14 -10.7,-4.21 -14.83,-0.15 -4.14,4.06 -4.21,10.7 -0.15,14.84 0.05,0.05 0.09,0.1 0.15,0.15l14.76 14.76c0,14.04 11.38,25.43 25.43,25.43l0 0 25.43 0 0 -4.24 -50.79 -50.79z"/>
   <path class="fil13" d="M125.48 160.19c-14.04,-0.01 -25.43,11.37 -25.44,25.42 0,10.12 6,19.28 15.27,23.32l3.39 -7.76c-8.59,-3.74 -12.52,-13.73 -8.78,-22.32 2.69,-6.19 8.81,-10.19 15.56,-10.18 2.34,0 4.65,0.48 6.78,1.43 2.15,0.93 4.65,-0.04 5.59,-2.19 0.23,-0.54 0.35,-1.11 0.35,-1.7l0 -31.1 21.55 0c-0.24,1.39 -0.36,2.81 -0.36,4.23 0.03,12.08 8.53,22.49 20.35,24.93l1.7 -8.31c-7.89,-1.63 -13.55,-8.56 -13.57,-16.62 0,-2.33 0.49,-4.64 1.44,-6.78 0.93,-2.14 -0.05,-4.64 -2.2,-5.58 -0.53,-0.23 -1.1,-0.35 -1.69,-0.35l-27.22 0 0 -21.56c1.4,0.24 2.82,0.36 4.24,0.36 14.05,0 25.43,-11.38 25.43,-25.43 0,-14.05 -11.38,-25.43 -25.43,-25.43l0 0c-1.42,0 -2.84,0.12 -4.24,0.36l0 -21.56 72.06 0c11.7,0.02 21.18,9.5 21.19,21.2l0 72.06 -27.22 0c-2.34,0 -4.24,1.9 -4.23,4.24 0,0.58 0.12,1.16 0.35,1.69 0.94,2.14 1.43,4.45 1.43,6.78l8.48 0c0,-1.42 -0.12,-2.84 -0.36,-4.23l25.79 0c2.34,0 4.24,-1.9 4.24,-4.24l0 -76.3c-0.02,-16.38 -13.29,-29.65 -29.67,-29.68l-152.6 0c-16.38,0.03 -29.65,13.3 -29.67,29.68l0 152.24c0.02,16.38 13.29,29.66 29.67,29.68l46.63 0 0 -8.48 -46.63 0c-11.7,-0.01 -21.18,-9.5 -21.19,-21.2l0 -71.7 27.22 0c2.51,-0.19 4.4,-2.37 4.22,-4.89 -0.04,-0.48 -0.15,-0.96 -0.34,-1.41 -3.77,-8.57 0.13,-18.57 8.7,-22.34 8.58,-3.77 18.58,0.13 22.35,8.7 1.91,4.35 1.91,9.3 0,13.65 -1.05,2.19 -0.12,4.81 2.07,5.86 0.56,0.27 1.18,0.42 1.81,0.43l27.22 0 0 25.43c-1.4,-0.24 -2.82,-0.36 -4.24,-0.35zm-67.82 -126.82l72.06 0 0 27.22c0,2.34 1.9,4.24 4.25,4.24 0.58,0 1.15,-0.12 1.69,-0.35 2.13,-0.95 4.44,-1.44 6.78,-1.44 9.36,0 16.95,7.6 16.95,16.96 0,9.36 -7.59,16.95 -16.95,16.95 -2.34,0 -4.65,-0.48 -6.78,-1.43 -2.15,-0.93 -4.65,0.04 -5.59,2.19 -0.23,0.54 -0.35,1.11 -0.35,1.7l0 26.87 -21.52 0c0.21,-1.29 0.32,-2.59 0.33,-3.89 0,-0.08 0,-0.15 0,-0.22 0,-0.08 0,-0.09 0,-0.13 0,-14.05 -11.39,-25.44 -25.43,-25.44 -14.05,0 -25.44,11.39 -25.44,25.44 0,0.04 0,0.09 0,0.13 0,0.04 0,0.14 0,0.22 0.01,1.3 0.12,2.6 0.33,3.89l-21.52 0 0 -71.71c0.01,-11.7 9.49,-21.18 21.19,-21.2z"/>
   <path class="fil13" d="M273.26 207.09l-35.64 -24.54 -13.69 -36.57c-0.82,-2.19 -3.25,-3.31 -5.45,-2.49 -0.08,0.03 -0.16,0.06 -0.23,0.09l-27.55 12.19c-2.07,0.91 -3.06,3.28 -2.25,5.39 0.46,1.19 0.88,2.09 1.34,3.02 0.45,0.93 0.87,1.81 1.38,3.18 3.29,8.79 -1.14,18.6 -9.91,21.93 -8.77,3.28 -18.54,-1.17 -21.82,-9.94 -0.82,-2.2 -1.18,-4.55 -1.05,-6.89 0.12,-2.34 -1.67,-4.33 -4.01,-4.46 -0.58,-0.03 -1.17,0.06 -1.72,0.27l-29.45 11.09c-2.19,0.83 -3.3,3.27 -2.48,5.46l10.58 28.24c-1.41,0.25 -2.78,0.63 -4.12,1.14 -13.19,4.91 -19.89,19.59 -14.98,32.78 4.92,13.19 19.59,19.9 32.78,14.98 1.36,-0.5 2.67,-1.12 3.93,-1.85l7.58 20.24c0.82,2.19 3.26,3.3 5.45,2.49 0.01,0 0.01,0 0.01,-0.01l42 -15.82c2.64,5.67 7.49,10 13.42,11.98l2.68 -8.05c-3.49,-1.18 -6.39,-3.66 -8.1,-6.93l12.78 -4.81c4.2,11.81 15.38,19.69 27.91,19.68l0 -8.48c-11.67,-0.07 -21.12,-9.52 -21.19,-21.2 0,-1.12 -0.45,-2.2 -1.24,-2.99l-14.76 -14.76c-2.19,-2.21 -2.44,-5.69 -0.58,-8.18 1.08,-1.46 2.74,-2.36 4.55,-2.48 1.82,-0.16 3.6,0.51 4.87,1.81l29.59 29.6 6 -5.99 -8.76 -8.76c2.16,-6.45 2.03,-13.45 -0.38,-19.82l-7.94 -21.21 25.62 17.63c3.39,2.39 5.41,6.27 5.42,10.42l0 54.76 8.47 0 0 -54.76c0,-6.92 -3.39,-13.41 -9.06,-17.38zm-29.21 23.27l-13.76 -13.75c-5.68,-5.82 -15.01,-5.94 -20.83,-0.26 -5.82,5.68 -5.94,15 -0.26,20.83 0.08,0.09 0.17,0.18 0.26,0.26l13.41 13.41 -59.91 22.56 -8.08 -21.59c-0.5,-1.34 -1.64,-2.34 -3.04,-2.65 -0.3,-0.06 -0.61,-0.1 -0.92,-0.1 -1.11,0 -2.18,0.43 -2.97,1.21 -6.81,6.43 -17.54,6.13 -23.97,-0.68 -6.43,-6.81 -6.13,-17.54 0.68,-23.97 1.6,-1.52 3.48,-2.7 5.54,-3.5 1.35,-0.5 2.76,-0.81 4.19,-0.94 0.88,-0.11 1.77,-0.14 2.66,-0.09 2.34,0.12 4.33,-1.68 4.45,-4.01 0.03,-0.59 -0.06,-1.17 -0.26,-1.71l-11.07 -29.56 20.18 -7.6c2.65,13.79 15.98,22.83 29.78,20.18 1.41,-0.27 2.79,-0.66 4.14,-1.17 13.14,-4.98 19.78,-19.65 14.86,-32.82 -0.39,-1.05 -0.74,-1.87 -1.08,-2.61l19.5 -8.64 25.26 67.44c1.18,3.11 1.6,6.46 1.24,9.76z"/>
   <g>
   </g>
   <g>
   </g>
   <g>
   </g>
   <g>
   </g>
   <g>
   </g>
   <g>
   </g>
   <g>
   </g>
   <g>
   </g>
   <g>
   </g>
   <g>
   </g>
   <g>
   </g>
   <g>
   </g>
   <g>
   </g>
   <g>
   </g>
   <g>
   </g>
  </g>
 </g>
</svg>
